# xmcd CD database file
#
# Track frame offsets:
#	150
#	24224
#	55925
#	80193
#
# Disc length: 1322 seconds
#
# Revision: 0
# Processed by: cddbd v1.5.2PL0 Copyright (c) Steve Scherf et al.
# Submitted via: CDex 1.70beta2
#
DISCID=29052804
DTITLE=Jim Hall - Jim Hall compositeur CD jazz magazine
DYEAR=2014
DGENRE=Jazz
TTITLE0=Chico Hamilton - Spectacular
TTITLE1=Brookmeyer/Hall/Raney - Arrowhead
TTITLE2=Bill Evans and Jim Hall - Romain
TTITLE3=Gary Burton - Careful
EXTD=YEAR: 2014
EXTT0=
EXTT1=
EXTT2=
EXTT3=
PLAYORDER=
